<svg width="40" height="40" viewBox="0 0 40 40" fill="none" xmlns="http://www.w3.org/2000/svg">
<g clip-path="url(#clip0_775_6001)">
<path d="M19.3164 9.54547V1.36365C19.3164 1.11261 19.5205 0.908573 19.7714 0.914175C26.305 1.06001 32.0646 4.3385 35.6094 9.30691C35.8189 9.60075 35.6041 10 35.2432 10H19.771C19.5199 10 19.3164 9.7965 19.3164 9.54547Z" fill="white"/>
<path d="M19.771 14.0908H35.68C35.9312 14.0908 36.1346 14.2943 36.1346 14.5454V23.1817C36.1346 23.4329 35.9312 23.6363 35.68 23.6363H19.771C19.5199 23.6363 19.3164 23.4329 19.3164 23.1817V14.5454C19.3164 14.2943 19.5199 14.0908 19.771 14.0908Z" fill="white"/>
<path d="M11.445 30.648C11.3935 30.7218 11.3633 30.8116 11.3633 30.9086V35.5211H28.4087V30.9086C28.4087 30.6577 28.2053 30.4541 27.9542 30.4541H11.8178C11.6633 30.4541 11.5275 30.5307 11.445 30.648Z" fill="#D9D9D9"/>
<path fill-rule="evenodd" clip-rule="evenodd" d="M11.3643 38.0445C11.3126 38.0195 11.261 37.9945 11.2095 37.9693C11.1722 37.9511 11.1349 37.9327 11.0977 37.9141C11.1862 37.9582 11.275 38.0016 11.3643 38.0445Z" fill="white"/>
<path fill-rule="evenodd" clip-rule="evenodd" d="M20 0C8.9543 0 0 8.9543 0 20C0 26.2634 2.87923 31.8545 7.38636 35.5216H11.3636V30.9091C11.3636 30.812 11.3938 30.7223 11.4453 30.6484C11.5279 30.5311 11.6637 30.4545 11.8182 30.4545H27.9545C28.2057 30.4545 28.4091 30.6582 28.4091 30.9091V35.5216H32.6136C37.1207 31.8545 40 26.2634 40 20C40 8.9543 31.0457 0 20 0ZM35.6818 14.0909H19.7727C19.5217 14.0909 19.3182 14.2944 19.3182 14.5455V23.1818C19.3182 23.433 19.5217 23.6364 19.7727 23.6364H35.6818C35.933 23.6364 36.1364 23.433 36.1364 23.1818V14.5455C36.1364 14.2944 35.933 14.0909 35.6818 14.0909ZM19.3182 1.36356V9.54539C19.3182 9.79641 19.5217 9.99993 19.7727 9.99993H35.245C35.6059 9.99993 35.8207 9.60066 35.6111 9.30682C32.0664 4.33841 26.3068 1.05992 19.7732 0.914086C19.5223 0.908484 19.3182 1.11252 19.3182 1.36356Z" fill="#FFEC02"/>
<path fill-rule="evenodd" clip-rule="evenodd" d="M11.364 35.5215H7.38672C8.52629 36.4488 9.76992 37.2531 11.0974 37.914C11.1346 37.9326 11.1719 37.951 11.2093 37.9692C11.2607 37.9944 11.3123 38.0194 11.364 38.0444C11.7734 38.2406 12.1905 38.4233 12.6148 38.5922C13.2038 38.8263 13.8066 39.0333 14.4216 39.2115C16.1923 39.7249 18.0642 39.9999 20.0004 39.9999C21.1978 39.9999 22.3708 39.8947 23.5106 39.6928C23.9401 39.6169 24.3651 39.5272 24.7849 39.424C24.9424 39.3853 25.099 39.3449 25.2551 39.3026C25.5279 39.2285 25.7985 39.1488 26.0665 39.0635C26.6949 38.8638 27.3097 38.6338 27.9094 38.3753C28.0774 38.3028 28.244 38.2283 28.4094 38.1515C28.6531 38.0385 28.8942 37.9206 29.1326 37.7981C30.3742 37.1597 31.5404 36.3951 32.614 35.5215H28.4094H11.364ZM11.364 38.0444C11.3123 38.0194 11.2607 37.9944 11.2093 37.9692C11.1719 37.951 11.1346 37.9326 11.0974 37.914C11.1859 37.9581 11.2748 38.0015 11.364 38.0444Z" fill="#FEE998"/>
<path d="M7.32031 23.864V8.95898H12.7787C13.8364 8.95898 14.7122 9.13364 15.406 9.48298C16.0998 9.82746 16.6189 10.2957 16.9634 10.8876C17.3079 11.4747 17.4802 12.137 17.4802 12.8744C17.4802 13.4955 17.3661 14.0195 17.1381 14.4465C16.9101 14.8686 16.6044 15.2082 16.2211 15.4653C15.8426 15.7176 15.4254 15.902 14.9693 16.0185V16.164C15.4642 16.1883 15.9469 16.3484 16.4176 16.6443C16.8931 16.9355 17.2861 17.3503 17.5966 17.8888C17.9071 18.4274 18.0624 19.0824 18.0624 19.8539C18.0624 20.6156 17.8829 21.2997 17.5238 21.9062C17.1696 22.5078 16.6214 22.9858 15.879 23.3399C15.1367 23.6892 14.1882 23.864 13.0334 23.864H7.32031ZM9.56915 21.9353H12.8151C13.8922 21.9353 14.6636 21.7267 15.1294 21.3094C15.5952 20.8922 15.8281 20.3706 15.8281 19.7447C15.8281 19.2741 15.7092 18.8423 15.4715 18.4493C15.2337 18.0563 14.8941 17.7433 14.4526 17.5104C14.0159 17.2775 13.4968 17.1611 12.8951 17.1611H9.56915V21.9353ZM9.56915 15.4071H12.5822C13.0868 15.4071 13.5404 15.3101 13.9431 15.116C14.3507 14.9219 14.6733 14.6502 14.9111 14.3009C15.1537 13.9467 15.275 13.5294 15.275 13.0491C15.275 12.4329 15.0591 11.9162 14.6272 11.4989C14.1954 11.0817 13.5332 10.8731 12.6404 10.8731H9.56915V15.4071Z" fill="#191919"/>
</g>
<defs>
<clipPath id="clip0_775_6001">
<rect width="40" height="40" fill="white"/>
</clipPath>
</defs>
</svg>
