<svg width="40" height="40" viewBox="0 0 40 40" fill="none" xmlns="http://www.w3.org/2000/svg">
<g clip-path="url(#clip0_775_6009)">
<path d="M19.3164 9.54547V1.36365C19.3164 1.11261 19.5205 0.908573 19.7714 0.914175C26.305 1.06001 32.0646 4.3385 35.6094 9.30691C35.8189 9.60075 35.6041 10 35.2432 10H19.771C19.5199 10 19.3164 9.7965 19.3164 9.54547Z" fill="white"/>
<path d="M19.771 14.0908H35.68C35.9312 14.0908 36.1346 14.2943 36.1346 14.5454V23.1817C36.1346 23.4329 35.9312 23.6363 35.68 23.6363H19.771C19.5199 23.6363 19.3164 23.4329 19.3164 23.1817V14.5454C19.3164 14.2943 19.5199 14.0908 19.771 14.0908Z" fill="white"/>
<path d="M11.445 30.648C11.3935 30.7218 11.3633 30.8116 11.3633 30.9086V35.5211H28.4087V30.9086C28.4087 30.6577 28.2053 30.4541 27.9542 30.4541H11.8178C11.6633 30.4541 11.5275 30.5307 11.445 30.648Z" fill="#D9D9D9"/>
<path fill-rule="evenodd" clip-rule="evenodd" d="M11.3643 38.0445C11.3126 38.0195 11.261 37.9945 11.2095 37.9693C11.1722 37.9511 11.1349 37.9327 11.0977 37.9141C11.1862 37.9582 11.275 38.0016 11.3643 38.0445Z" fill="white"/>
<path fill-rule="evenodd" clip-rule="evenodd" d="M20 0C8.9543 0 0 8.9543 0 20C0 26.2634 2.87923 31.8545 7.38636 35.5216H11.3636V30.9091C11.3636 30.812 11.3938 30.7223 11.4453 30.6484C11.5279 30.5311 11.6637 30.4545 11.8182 30.4545H27.9545C28.2057 30.4545 28.4091 30.6582 28.4091 30.9091V35.5216H32.6136C37.1207 31.8545 40 26.2634 40 20C40 8.9543 31.0457 0 20 0ZM35.6818 14.0909H19.7727C19.5217 14.0909 19.3182 14.2944 19.3182 14.5455V23.1818C19.3182 23.433 19.5217 23.6364 19.7727 23.6364H35.6818C35.933 23.6364 36.1364 23.433 36.1364 23.1818V14.5455C36.1364 14.2944 35.933 14.0909 35.6818 14.0909ZM19.3182 1.36356V9.54539C19.3182 9.79641 19.5217 9.99993 19.7727 9.99993H35.245C35.6059 9.99993 35.8207 9.60066 35.6111 9.30682C32.0664 4.33841 26.3068 1.05992 19.7732 0.914086C19.5223 0.908484 19.3182 1.11252 19.3182 1.36356Z" fill="#70B440"/>
<path fill-rule="evenodd" clip-rule="evenodd" d="M11.364 35.5215H7.38672C8.52629 36.4488 9.76992 37.2531 11.0974 37.914C11.1346 37.9326 11.1719 37.951 11.2093 37.9692C11.2607 37.9944 11.3123 38.0194 11.364 38.0444C11.7734 38.2406 12.1905 38.4233 12.6148 38.5922C13.2038 38.8263 13.8066 39.0333 14.4216 39.2115C16.1923 39.7249 18.0642 39.9999 20.0004 39.9999C21.1978 39.9999 22.3708 39.8947 23.5106 39.6928C23.9401 39.6169 24.3651 39.5272 24.7849 39.424C24.9424 39.3853 25.099 39.3449 25.2551 39.3026C25.5279 39.2285 25.7985 39.1488 26.0665 39.0635C26.6949 38.8638 27.3097 38.6338 27.9094 38.3753C28.0774 38.3028 28.244 38.2283 28.4094 38.1515C28.6531 38.0385 28.8942 37.9206 29.1326 37.7981C30.3742 37.1597 31.5404 36.3951 32.614 35.5215H28.4094H11.364ZM11.364 38.0444C11.3123 38.0194 11.2607 37.9944 11.2093 37.9692C11.1719 37.951 11.1346 37.9326 11.0974 37.914C11.1859 37.9581 11.2748 38.0015 11.364 38.0444Z" fill="#B0D48C"/>
<path d="M18.106 13.5781H15.8353C15.748 13.093 15.5855 12.666 15.3477 12.2973C15.11 11.9285 14.8189 11.6155 14.4744 11.3584C14.1299 11.1013 13.7442 10.9072 13.3172 10.7762C12.8951 10.6452 12.4463 10.5797 11.9708 10.5797C11.112 10.5797 10.343 10.7956 9.66373 11.2274C8.98932 11.6592 8.45562 12.2924 8.06262 13.1269C7.67446 13.9614 7.48039 14.9803 7.48039 16.1836C7.48039 17.3966 7.67446 18.4203 8.06262 19.2548C8.45562 20.0894 8.99175 20.7201 9.67103 21.1471C10.3503 21.574 11.1145 21.7875 11.9635 21.7875C12.4342 21.7875 12.8805 21.7244 13.3026 21.5983C13.7296 21.4673 14.1153 21.2756 14.4598 21.0233C14.8043 20.771 15.0954 20.463 15.3332 20.0991C15.5758 19.7303 15.7431 19.3082 15.8353 18.8327L18.106 18.84C17.9847 19.5726 17.7494 20.247 17.4 20.8632C17.0556 21.4746 16.6116 22.0034 16.0682 22.4498C15.5297 22.8913 14.9135 23.2334 14.2196 23.4759C13.5258 23.7186 12.7689 23.84 11.949 23.84C10.6584 23.84 9.50848 23.5343 8.4993 22.9229C7.49009 22.3067 6.69439 21.426 6.11216 20.281C5.5348 19.136 5.24609 17.7702 5.24609 16.1836C5.24609 14.5922 5.53721 13.2264 6.11943 12.0862C6.70166 10.9411 7.49737 10.063 8.50657 9.45162C9.51575 8.83543 10.6632 8.52734 11.949 8.52734C12.7398 8.52734 13.4773 8.64137 14.1614 8.86939C14.8504 9.09259 15.469 9.4225 16.0173 9.85918C16.5655 10.291 17.0192 10.8198 17.3782 11.4458C17.7373 12.0668 17.9798 12.7776 18.106 13.5781Z" fill="#191919"/>
</g>
<defs>
<clipPath id="clip0_775_6009">
<rect width="40" height="40" fill="white"/>
</clipPath>
</defs>
</svg>
