<svg width="40" height="40" viewBox="0 0 40 40" fill="none" xmlns="http://www.w3.org/2000/svg">
<g clip-path="url(#clip0_775_5981)">
<path d="M19.771 14.0908H35.68C35.9312 14.0908 36.1346 14.2943 36.1346 14.5454V23.1817C36.1346 23.4329 35.9312 23.6363 35.68 23.6363H19.771C19.5199 23.6363 19.3164 23.4329 19.3164 23.1817V14.5454C19.3164 14.2943 19.5199 14.0908 19.771 14.0908Z" fill="white"/>
<path d="M11.445 30.648C11.3935 30.7218 11.3633 30.8116 11.3633 30.9086V35.5211H28.4087V30.9086C28.4087 30.6577 28.2053 30.4541 27.9542 30.4541H11.8178C11.6633 30.4541 11.5275 30.5307 11.445 30.648Z" fill="#D9D9D9"/>
<path fill-rule="evenodd" clip-rule="evenodd" d="M11.3643 38.0445C11.3126 38.0195 11.261 37.9945 11.2095 37.9693C11.1722 37.9511 11.1349 37.9327 11.0977 37.9141C11.1862 37.9582 11.275 38.0016 11.3643 38.0445Z" fill="white"/>
<path fill-rule="evenodd" clip-rule="evenodd" d="M20 0C8.9543 0 0 8.9543 0 20C0 26.2634 2.87923 31.8545 7.38636 35.5216H11.3636V30.9091C11.3636 30.812 11.3938 30.7223 11.4453 30.6484C11.5279 30.5311 11.6637 30.4545 11.8182 30.4545H27.9545C28.2057 30.4545 28.4091 30.6582 28.4091 30.9091V35.5216H32.6136C37.1207 31.8545 40 26.2634 40 20C40 8.9543 31.0457 0 20 0ZM35.6818 14.0909H19.7727C19.5217 14.0909 19.3182 14.2944 19.3182 14.5455V23.1818C19.3182 23.433 19.5217 23.6364 19.7727 23.6364H35.6818C35.933 23.6364 36.1364 23.433 36.1364 23.1818V14.5455C36.1364 14.2944 35.933 14.0909 35.6818 14.0909ZM19.3182 1.36356V9.54539C19.3182 9.79641 19.5217 9.99993 19.7727 9.99993H35.245C35.6059 9.99993 35.8207 9.60066 35.6111 9.30682C32.0664 4.33841 26.3068 1.05992 19.7732 0.914086C19.5223 0.908484 19.3182 1.11252 19.3182 1.36356Z" fill="#016C9D"/>
<path fill-rule="evenodd" clip-rule="evenodd" d="M11.364 35.5215H7.38672C8.52629 36.4488 9.76992 37.2531 11.0974 37.914C11.1346 37.9326 11.1719 37.951 11.2093 37.9692C11.2607 37.9944 11.3123 38.0194 11.364 38.0444C11.7734 38.2406 12.1905 38.4233 12.6148 38.5922C13.2038 38.8263 13.8066 39.0333 14.4216 39.2115C16.1923 39.7249 18.0642 39.9999 20.0004 39.9999C21.1978 39.9999 22.3708 39.8947 23.5106 39.6928C23.9401 39.6169 24.3651 39.5272 24.7849 39.424C24.9424 39.3853 25.099 39.3449 25.2551 39.3026C25.5279 39.2285 25.7985 39.1488 26.0665 39.0635C26.6949 38.8638 27.3097 38.6338 27.9094 38.3753C28.0774 38.3028 28.244 38.2283 28.4094 38.1515C28.6531 38.0385 28.8942 37.9206 29.1326 37.7981C30.3742 37.1597 31.5404 36.3951 32.614 35.5215H28.4094H11.364ZM11.364 38.0444C11.3123 38.0194 11.2607 37.9944 11.2093 37.9692C11.1719 37.951 11.1346 37.9326 11.0974 37.914C11.1859 37.9581 11.2748 38.0015 11.364 38.0444Z" fill="#CEDDE0"/>
<path d="M12.5321 24.1111C11.3822 24.1061 10.3997 23.803 9.58454 23.2014C8.76943 22.5997 8.14595 21.724 7.71413 20.574C7.28232 19.4242 7.06641 18.039 7.06641 16.4184C7.06641 14.8027 7.28232 13.4224 7.71413 12.2773C8.15082 11.1323 8.7767 10.259 9.59182 9.65734C10.4118 9.0557 11.3919 8.75488 12.5321 8.75488C13.6722 8.75488 14.6499 9.05813 15.465 9.66461C16.2801 10.2662 16.9036 11.1396 17.3354 12.2846C17.7721 13.4248 17.9904 14.8027 17.9904 16.4184C17.9904 18.0438 17.7745 19.4314 17.3427 20.5813C16.9109 21.7264 16.2874 22.6021 15.4723 23.2086C14.6572 23.8102 13.6771 24.1111 12.5321 24.1111ZM12.5321 22.1679C13.5412 22.1679 14.3297 21.6754 14.8973 20.6905C15.4699 19.7056 15.7561 18.2815 15.7561 16.4184C15.7561 15.1812 15.6251 14.1356 15.3631 13.2817C15.106 12.4229 14.7348 11.7727 14.2496 11.3312C13.7693 10.8849 13.1968 10.6617 12.5321 10.6617C11.5277 10.6617 10.7393 11.1566 10.1668 12.1463C9.59425 13.1361 9.30557 14.5602 9.3007 16.4184C9.3007 17.6605 9.42927 18.7109 9.68643 19.5697C9.94843 20.4236 10.3196 21.0714 10.7999 21.5129C11.2803 21.9496 11.8576 22.1679 12.5321 22.1679Z" fill="#191919"/>
<path d="M19.3164 9.54547V1.36365C19.3164 1.11261 19.5205 0.908573 19.7714 0.914175C26.305 1.06001 32.0646 4.3385 35.6094 9.30691C35.8189 9.60075 35.6041 10 35.2432 10H19.771C19.5199 10 19.3164 9.7965 19.3164 9.54547Z" fill="white"/>
</g>
<defs>
<clipPath id="clip0_775_5981">
<rect width="40" height="40" fill="white"/>
</clipPath>
</defs>
</svg>
