<svg width="40" height="40" viewBox="0 0 40 40" fill="none" xmlns="http://www.w3.org/2000/svg">
<g clip-path="url(#clip0_775_5989)">
<path d="M19.771 14.0908H19.9609H35.68C35.9312 14.0908 36.1346 14.2943 36.1346 14.5454V23.1817C36.1346 23.4329 35.9312 23.6363 35.68 23.6363H19.91H19.771C19.5199 23.6363 19.3164 23.4329 19.3164 23.1817V14.5454C19.3164 14.2943 19.5199 14.0908 19.771 14.0908Z" fill="white"/>
<path d="M11.445 30.648C11.3935 30.7218 11.3633 30.8116 11.3633 30.9086V35.5211H19.9996H28.4087V30.9086C28.4087 30.6577 28.2053 30.4541 27.9542 30.4541H19.886H11.8178C11.6633 30.4541 11.5275 30.5307 11.445 30.648Z" fill="#D9D9D9"/>
<path fill-rule="evenodd" clip-rule="evenodd" d="M11.3643 38.0445C11.3126 38.0195 11.261 37.9945 11.2095 37.9693C11.1722 37.9511 11.1349 37.9327 11.0977 37.9141C11.1862 37.9582 11.275 38.0016 11.3643 38.0445Z" fill="white"/>
<path d="M20 0C8.9543 0 0 8.9543 0 20C0 26.2634 2.87923 31.8545 7.38636 35.5216H11.3636V30.9091C11.3636 30.812 11.3938 30.7223 11.4453 30.6484C11.5279 30.5311 11.6637 30.4545 11.8182 30.4545H19.8864L19.9118 23.6364H19.7727C19.5217 23.6364 19.3182 23.433 19.3182 23.1818V14.5455C19.3182 14.2944 19.5217 14.0909 19.7727 14.0909H19.9627V9.99993H19.7727C19.5217 9.99993 19.3182 9.79641 19.3182 9.54539V1.36356C19.3182 1.11252 19.5223 0.908484 19.7732 0.914086C19.8478 0.91575 19.9222 0.917823 19.9966 0.9203L20 0Z" fill="#6FB440"/>
<path d="M40.0004 20C40.0004 8.9543 31.046 0 20.0004 0L19.9969 0.9203C26.4383 1.13496 32.1072 4.39511 35.6115 9.30682C35.821 9.60066 35.6063 9.99993 35.2454 9.99993H19.963V14.0909H35.6822C35.9333 14.0909 36.1367 14.2944 36.1367 14.5455V23.1818C36.1367 23.433 35.9333 23.6364 35.6822 23.6364H19.9122L19.8867 30.4545H27.9549C28.206 30.4545 28.4094 30.6582 28.4094 30.9091V35.5216H32.614C37.121 31.8545 40.0004 26.2634 40.0004 20Z" fill="#0F80C6"/>
<path d="M32.6136 35.5215H28.4091H20V39.9999C21.1974 39.9999 22.3704 39.8947 23.5102 39.6928C23.9398 39.6169 24.3648 39.5272 24.7845 39.424C24.942 39.3853 25.0986 39.3449 25.2548 39.3026C25.5275 39.2285 25.7982 39.1488 26.0661 39.0635C26.6945 38.8638 27.3093 38.6338 27.9091 38.3753C28.077 38.3028 28.2436 38.2283 28.4091 38.1515C28.6527 38.0385 28.8939 37.9206 29.1323 37.7981C30.3739 37.1597 31.54 36.3951 32.6136 35.5215Z" fill="#1FB6E3"/>
<path fill-rule="evenodd" clip-rule="evenodd" d="M11.364 35.5215H7.38672C8.52629 36.4488 9.76992 37.2531 11.0974 37.914C11.1346 37.9326 11.1719 37.951 11.2093 37.9692C11.2607 37.9944 11.3123 38.0194 11.364 38.0444C11.7734 38.2406 12.1905 38.4233 12.6148 38.5922C13.2038 38.8263 13.8066 39.0333 14.4216 39.2115C16.1923 39.7249 18.0642 39.9999 20.0004 39.9999V35.5215H11.364ZM11.364 38.0444C11.3123 38.0194 11.2607 37.9944 11.2093 37.9692C11.1719 37.951 11.1346 37.9326 11.0974 37.914C11.1859 37.9581 11.2748 38.0015 11.364 38.0444Z" fill="#B2D487"/>
<path d="M14.0742 10.6819V5.39258H17.3903V6.07958H14.8722V7.69115H17.2173V8.37553H14.8722V9.99485H17.4213V10.6819H14.0742Z" fill="#191919"/>
<path d="M17.9815 14.8402H17.1757C17.1447 14.668 17.087 14.5165 17.0027 14.3856C16.9183 14.2548 16.815 14.1437 16.6928 14.0525C16.5705 13.9612 16.4336 13.8924 16.2821 13.8459C16.1323 13.7994 15.9731 13.7761 15.8043 13.7761C15.4996 13.7761 15.2267 13.8528 14.9856 14.006C14.7463 14.1592 14.5569 14.3839 14.4174 14.6801C14.2797 14.9762 14.2108 15.3378 14.2108 15.7648C14.2108 16.1952 14.2797 16.5585 14.4174 16.8547C14.5569 17.1508 14.7472 17.3746 14.9882 17.5261C15.2293 17.6777 15.5004 17.7534 15.8017 17.7534C15.9688 17.7534 16.1272 17.731 16.2769 17.6863C16.4285 17.6398 16.5654 17.5718 16.6876 17.4822C16.8098 17.3927 16.9132 17.2834 16.9975 17.1542C17.0836 17.0234 17.143 16.8736 17.1757 16.7049L17.9815 16.7074C17.9384 16.9674 17.8549 17.2068 17.731 17.4254C17.6087 17.6424 17.4512 17.83 17.2584 17.9884C17.0672 18.1451 16.8486 18.2665 16.6024 18.3526C16.3562 18.4387 16.0876 18.4817 15.7966 18.4817C15.3386 18.4817 14.9305 18.3733 14.5724 18.1563C14.2143 17.9376 13.9319 17.6251 13.7253 17.2188C13.5204 16.8125 13.418 16.3278 13.418 15.7648C13.418 15.2001 13.5213 14.7154 13.7279 14.3108C13.9345 13.9044 14.2169 13.5928 14.575 13.3758C14.9331 13.1572 15.3403 13.0479 15.7966 13.0479C16.0772 13.0479 16.3389 13.0883 16.5817 13.1692C16.8262 13.2484 17.0457 13.3655 17.2403 13.5205C17.4348 13.6737 17.5958 13.8614 17.7232 14.0835C17.8507 14.3039 17.9367 14.5561 17.9815 14.8402Z" fill="#191919"/>
<path d="M18.0619 23.4914C18.0619 24.0561 17.9586 24.5416 17.7519 24.948C17.5453 25.3525 17.2621 25.6643 16.9023 25.883C16.5441 26.0998 16.1369 26.2082 15.6807 26.2082C15.2227 26.2082 14.8138 26.0998 14.4539 25.883C14.0958 25.6643 13.8134 25.3518 13.6068 24.9455C13.4002 24.5391 13.2969 24.0543 13.2969 23.4914C13.2969 22.9266 13.4002 22.4419 13.6068 22.0373C13.8134 21.631 14.0958 21.3193 14.4539 21.1024C14.8138 20.8837 15.2227 20.7744 15.6807 20.7744C16.1369 20.7744 16.5441 20.8837 16.9023 21.1024C17.2621 21.3193 17.5453 21.631 17.7519 22.0373C17.9586 22.4419 18.0619 22.9266 18.0619 23.4914ZM17.2716 23.4914C17.2716 23.0609 17.2018 22.6985 17.0624 22.4041C16.9246 22.1079 16.7352 21.8841 16.4942 21.7326C16.2549 21.5793 15.9837 21.5027 15.6807 21.5027C15.3759 21.5027 15.1039 21.5793 14.8645 21.7326C14.6252 21.8841 14.4358 22.1079 14.2964 22.4041C14.1586 22.6985 14.0898 23.0609 14.0898 23.4914C14.0898 23.9218 14.1586 24.285 14.2964 24.5811C14.4358 24.8757 14.6252 25.0995 14.8645 25.2527C15.1039 25.4043 15.3759 25.48 15.6807 25.48C15.9837 25.48 16.2549 25.4043 16.4942 25.2527C16.7352 25.0995 16.9246 24.8757 17.0624 24.5811C17.2018 24.285 17.2716 23.9218 17.2716 23.4914Z" fill="#191919"/>
<path d="M19.3164 1.36365V9.54547C19.3164 9.7965 19.5199 10 19.771 10H19.9609H35.2432C35.6041 10 35.8189 9.60075 35.6094 9.30691C32.105 4.3952 26.4362 1.13505 19.9948 0.920389C19.9205 0.917912 19.846 0.915839 19.7714 0.914175C19.5205 0.908573 19.3164 1.11261 19.3164 1.36365Z" fill="white"/>
</g>
<defs>
<clipPath id="clip0_775_5989">
<rect width="40" height="40" fill="white"/>
</clipPath>
</defs>
</svg>
